<svg width="21" height="20" viewBox="0 0 21 20" fill="none" xmlns="http://www.w3.org/2000/svg">
<path fill-rule="evenodd" clip-rule="evenodd" d="M1.17082 0.670754C1.5068 0.334869 1.96244 0.146178 2.43752 0.146178C2.91261 0.146178 3.36824 0.334869 3.70423 0.670754L10.5 7.46655L17.2958 0.670754C17.4611 0.499632 17.6588 0.363139 17.8774 0.269239C18.096 0.17534 18.3311 0.125914 18.569 0.123847C18.8069 0.12178 19.0428 0.167112 19.263 0.257198C19.4832 0.347285 19.6832 0.480322 19.8514 0.648546C20.0197 0.81677 20.1527 1.01681 20.2428 1.237C20.3329 1.45719 20.3782 1.69312 20.3761 1.93101C20.3741 2.16891 20.3246 2.40401 20.2307 2.6226C20.1368 2.84119 20.0004 3.03889 19.8292 3.20417L13.0334 9.99996L19.8292 16.7958C20.1556 17.1337 20.3362 17.5862 20.3321 18.056C20.328 18.5258 20.1396 18.9752 19.8074 19.3073C19.4752 19.6395 19.0258 19.828 18.5561 19.832C18.0863 19.8361 17.6337 19.6555 17.2958 19.3292L10.5 12.5334L3.70423 19.3292C3.36632 19.6555 2.91374 19.8361 2.44397 19.832C1.9742 19.828 1.52483 19.6395 1.19264 19.3073C0.860451 18.9752 0.672023 18.5258 0.667941 18.056C0.663859 17.5862 0.84445 17.1337 1.17082 16.7958L7.96661 9.99996L1.17082 3.20417C0.834931 2.86818 0.64624 2.41255 0.64624 1.93746C0.64624 1.46238 0.834931 1.00674 1.17082 0.670754Z" fill="#5D4037"/>
</svg>
